<svg width="1200" height="630" viewBox="0 0 1200 630" xmlns="http://www.w3.org/2000/svg">
  <!-- Background -->
  <rect width="1200" height="630" fill="#f9fafb"/>
  
  <!-- Header Background -->
  <rect width="1200" height="120" fill="#2563eb"/>
  
  <!-- Main Content Area -->
  <rect x="60" y="160" width="1080" height="400" rx="12" fill="white" stroke="#e5e7eb" stroke-width="2"/>
  
  <!-- Settings Icon -->
  <circle cx="150" cy="70" r="20" fill="white" opacity="0.2"/>
  <circle cx="150" cy="70" r="6" fill="none" stroke="white" stroke-width="2"/>
  <path d="M150 50 L150 90 M130 70 L170 70" stroke="white" stroke-width="2" stroke-linecap="round"/>
  
  <!-- Title Text -->
  <text x="200" y="65" fill="white" font-family="Arial, sans-serif" font-size="32" font-weight="bold">Optimizely Best Bets Manager</text>
  <text x="200" y="95" fill="white" font-family="Arial, sans-serif" font-size="18" opacity="0.9">Manage pinned search results for Optimizely Graph</text>
  
  <!-- Collections Panel Mock -->
  <rect x="100" y="200" width="320" height="280" rx="8" fill="#ffffff" stroke="#e5e7eb" stroke-width="1"/>
  <rect x="100" y="200" width="320" height="50" rx="8" fill="#f8fafc" stroke="#e5e7eb" stroke-width="1"/>
  <text x="120" y="230" fill="#374151" font-family="Arial, sans-serif" font-size="16" font-weight="bold">Collections</text>
  
  <!-- Collection Items -->
  <rect x="110" y="260" width="300" height="40" rx="4" fill="#eff6ff" stroke="#dbeafe" stroke-width="1"/>
  <circle cx="125" cy="280" r="4" fill="#22c55e"/>
  <text x="140" y="285" fill="#1f2937" font-family="Arial, sans-serif" font-size="14" font-weight="600">Product Promotions</text>
  
  <rect x="110" y="310" width="300" height="40" rx="4" fill="#ffffff" stroke="#e5e7eb" stroke-width="1"/>
  <circle cx="125" cy="330" r="4" fill="#22c55e"/>
  <text x="140" y="335" fill="#1f2937" font-family="Arial, sans-serif" font-size="14" font-weight="600">Featured Content</text>
  
  <rect x="110" y="360" width="300" height="40" rx="4" fill="#ffffff" stroke="#e5e7eb" stroke-width="1"/>
  <circle cx="125" cy="380" r="4" fill="#9ca3af"/>
  <text x="140" y="385" fill="#1f2937" font-family="Arial, sans-serif" font-size="14" font-weight="600">Seasonal Campaigns</text>
  
  <!-- Items Panel Mock -->
  <rect x="460" y="200" width="640" height="280" rx="8" fill="#ffffff" stroke="#e5e7eb" stroke-width="1"/>
  <rect x="460" y="200" width="640" height="50" rx="8" fill="#f8fafc" stroke="#e5e7eb" stroke-width="1"/>
  <text x="480" y="230" fill="#374151" font-family="Arial, sans-serif" font-size="16" font-weight="bold">Pinned Items</text>
  
  <!-- Pinned Item -->
  <rect x="470" y="260" width="620" height="80" rx="4" fill="#ffffff" stroke="#e5e7eb" stroke-width="1"/>
  <circle cx="485" cy="280" r="4" fill="#22c55e"/>
  <text x="500" y="285" fill="#374151" font-family="Arial, sans-serif" font-size="14" font-weight="600">Priority: 1</text>
  <rect x="580" y="270" width="30" height="20" rx="10" fill="#dbeafe"/>
  <text x="590" y="283" fill="#1e40af" font-family="Arial, sans-serif" font-size="10">en</text>
  
  <!-- Search phrases -->
  <rect x="500" y="300" width="60" height="24" rx="12" fill="#dbeafe"/>
  <text x="520" y="315" fill="#1e40af" font-family="Arial, sans-serif" font-size="11">water</text>
  <rect x="570" y="300" width="100" height="24" rx="12" fill="#dbeafe"/>
  <text x="600" y="315" fill="#1e40af" font-family="Arial, sans-serif" font-size="11">bottled water</text>
  
  <!-- Target key -->
  <text x="500" y="345" fill="#6b7280" font-family="Arial, sans-serif" font-size="12">Target: e4c0b166-ce40-4620-b872-35af8d4fab22</text>
  
  <!-- Footer -->
  <text x="60" y="610" fill="#6b7280" font-family="Arial, sans-serif" font-size="14">Create collections • Manage pinned items • HMAC authentication • Real-time status</text>
</svg>